<svg width="291" height="93" viewBox="0 0 291 93" fill="none" xmlns="http://www.w3.org/2000/svg">
<path d="M107.909 42.0312V30.0772H113.8V60.1772H107.909V47.7072H96.729V60.1772H90.795V30.0772H96.729V42.0312H107.909ZM138.742 51.7062H122.531C123.262 54.4152 125.283 55.7482 128.594 55.7482C130.701 55.7482 132.335 55.0172 133.41 53.5982L137.882 56.1782C135.775 59.2312 132.636 60.7792 128.508 60.7792C124.939 60.7792 122.101 59.7042 119.951 57.5542C117.801 55.4042 116.726 52.6952 116.726 49.4272C116.726 46.2022 117.801 43.4932 119.908 41.3432C122.015 39.1502 124.767 38.0752 128.078 38.0752C131.217 38.0752 133.84 39.1502 135.861 41.3432C137.925 43.5362 138.957 46.2022 138.957 49.4272C138.957 50.1582 138.871 50.8892 138.742 51.7062ZM122.445 47.4062H133.41C132.765 44.4822 130.615 43.0632 128.078 43.0632C125.111 43.0632 123.09 44.6542 122.445 47.4062ZM157.711 41.2142V38.6772H163.258V60.1772H157.711V57.6402C156.034 59.7472 153.712 60.7792 150.702 60.7792C147.821 60.7792 145.37 59.7042 143.306 57.5112C141.285 55.3182 140.253 52.6092 140.253 49.4272C140.253 46.2452 141.285 43.5792 143.306 41.3862C145.37 39.1932 147.821 38.0752 150.702 38.0752C153.712 38.0752 156.034 39.1072 157.711 41.2142ZM147.477 53.8132C148.595 54.9312 150.014 55.4902 151.734 55.4902C153.454 55.4902 154.873 54.9312 155.991 53.8132C157.152 52.6522 157.711 51.1902 157.711 49.4272C157.711 47.6642 157.152 46.2022 155.991 45.0842C154.873 43.9232 153.454 43.3642 151.734 43.3642C150.014 43.3642 148.595 43.9232 147.477 45.0842C146.359 46.2022 145.8 47.6642 145.8 49.4272C145.8 51.1902 146.359 52.6522 147.477 53.8132ZM172.545 60.1772H166.998V28.7872H172.545V60.1772ZM188.63 38.6772V44.0092H183.771V52.9532C183.771 55.2752 185.448 55.3182 188.63 55.1462V60.1772C181.019 61.0372 178.224 58.8442 178.224 52.9532V44.0092H174.483V38.6772H178.224V34.3342L183.771 32.6572V38.6772H188.63ZM203.205 38.0752C205.57 38.0752 207.505 38.8492 209.01 40.4402C210.558 42.0312 211.332 44.1812 211.332 46.9762V60.1772H205.785V47.6642C205.785 44.7832 204.108 43.2352 201.528 43.2352C198.647 43.2352 196.798 44.9982 196.798 48.5672V60.1772H191.251V30.0772H196.798V41.0852C198.131 39.0642 200.281 38.0752 203.205 38.0752ZM223.562 53.1252L228.335 38.6772H234.269L226.443 60.1772C224.207 66.3692 220.595 69.0782 215.091 68.7772V63.6172C218.058 63.6602 219.692 62.4132 220.724 59.4892L211.909 38.6772H217.972L223.562 53.1252Z" fill="#078123"/>
<mask id="mask0_10_665" style="mask-type:alpha" maskUnits="userSpaceOnUse" x="0" y="0" width="75" height="93">
<path fill-rule="evenodd" clip-rule="evenodd" d="M71.1764 48.8571C72.3128 48.5525 73.4667 47.8818 73.8973 46.6326C74.0792 46.1733 74.0791 45.7721 74.0791 45.5503V45.5418C74.0791 45.4374 74.0757 45.3268 74.0628 45.2098C73.9677 44.2461 73.4449 43.6484 72.9901 43.1284C72.9009 43.0264 72.8143 42.9274 72.734 42.8291C71.9808 41.9073 70.7868 40.5871 68.9019 38.5765C67.4852 37.0654 66.6643 35.1798 66.2314 33.2665C66.0879 32.6323 66.1497 31.959 66.2633 31.2044C66.2825 31.0763 66.3036 30.9449 66.325 30.811C66.4244 30.1889 66.5328 29.5113 66.5189 28.8485C66.5175 25.0524 65.6646 21.2918 64.004 17.7887C62.3423 14.2834 59.9091 11.1032 56.8471 8.42765C53.7852 5.7522 50.1538 3.63299 46.1617 2.18814C42.1697 0.743281 37.893 0.000244141 33.5753 0.000244141C29.2576 0.000244141 24.9809 0.743281 20.9888 2.18814C16.9968 3.63299 13.3654 5.7522 10.3035 8.42765C7.24151 11.1032 4.80827 14.2834 3.1466 17.7887C2.83151 18.4533 2.54535 19.1272 2.28848 19.8088C2.27984 19.8257 2.27202 19.8432 2.2651 19.8613C1.06173 23.0124 -0.0781427 27.1324 0.00529164 30.6787C0.0181252 31.2242 0.419202 31.662 0.933633 31.7568L11.0546 33.6222C13.0103 33.9827 14.8966 32.7178 15.3056 30.7717L17.6036 19.8364C18.5981 15.1036 23.1855 12.0275 27.9416 12.9041C32.808 13.801 36.0121 18.4903 35.0792 23.3499L27.0578 65.131C26.6742 67.1292 27.9917 69.0574 29.9927 69.4262L30.3788 69.4974C32.359 69.8624 34.2627 68.5615 34.6424 66.5841L39.9919 38.7201C40.9168 33.9023 45.5552 30.7329 50.3798 31.6221L50.7658 31.6933C55.6412 32.5919 58.8513 37.2899 57.9166 42.1584L56.5906 49.0649C56.207 51.0631 57.5245 52.9914 59.5256 53.3602L67.5017 54.8303C67.7204 54.8706 67.9548 54.814 68.128 54.6615C68.3185 54.4938 68.421 54.213 68.316 53.9244L68.062 53.2257L68.0574 53.2147C67.8232 52.6526 67.6501 51.7791 67.8526 50.9915C68.0424 50.2532 68.5754 49.525 69.91 49.1914C70.2417 49.1085 70.4197 49.0606 70.8056 48.9568L70.8063 48.9566C70.9118 48.9282 71.0327 48.8957 71.1764 48.8571Z" fill="white"/>
<path fill-rule="evenodd" clip-rule="evenodd" d="M66.6072 62.3443L66.6332 62.327L66.6568 62.3067C67.1422 61.8907 67.3021 61.3015 67.2115 60.7679C67.1285 60.2785 66.7087 60.0373 66.3787 59.9765L58.5713 58.5375C53.696 57.6389 50.4859 52.9409 51.4206 48.0723L52.7465 41.1658C53.1302 39.1676 51.8126 37.2394 49.8116 36.8706L49.4255 36.7994C47.4453 36.4344 45.5416 37.7353 45.1619 39.7127L39.8124 67.5767C38.8875 72.3945 34.2491 75.5639 29.4246 74.6747L29.0385 74.6035C24.1632 73.7049 20.9531 69.0069 21.8877 64.1384L29.9091 22.3573C30.291 20.3681 28.9794 18.4485 26.9874 18.0813C25.0405 17.7225 23.1626 18.9817 22.7555 20.9191L20.4575 31.8543C19.4611 36.5959 14.8652 39.6778 10.1004 38.7995L1.80634 37.2708C1.56158 37.2257 1.28172 37.263 1.05597 37.4059C0.938525 37.4803 0.819831 37.5943 0.747688 37.7568C0.672682 37.9257 0.665076 38.1095 0.71432 38.2829C1.90391 42.4719 4.81742 47.6418 7.34894 50.8966C9.48374 53.6414 12.2333 59.131 9.78571 66.4743C9.5785 67.096 9.3684 67.6353 9.15601 68.1624C8.44378 69.9302 8.78988 71.9125 10.0168 73.3581C13.2519 77.1699 17.2074 81.3652 21.5296 84.9463C25.8468 88.5235 30.5591 91.5125 35.3087 92.8754C36.4783 93.211 37.7651 92.8647 38.5436 91.8825C40.0246 90.014 41.3128 87.422 42.9979 84.0318L43.0242 83.9788C44.0316 81.9519 45.1885 79.6243 46.6243 76.9579C47.477 75.3743 48.285 74.6749 49.1429 74.3449C50.0388 74.0002 51.0611 74.0223 52.4717 74.0635L52.4765 74.0637C53.1402 74.0831 53.8764 74.1046 54.6862 74.0806C56.766 74.0189 59.9712 73.8771 61.3259 73.7642C63.5727 73.577 65.2819 72.195 66.2537 70.5507C67.2133 68.9269 67.5171 66.931 66.7826 65.462C66.2909 64.4785 66.0988 63.7807 66.1051 63.2909C66.1107 62.8472 66.2766 62.5647 66.6072 62.3443Z" fill="white"/>
</mask>
<g mask="url(#mask0_10_665)">
<rect x="-12.2422" y="0.0439453" width="92.8841" height="92.8841" fill="#0FA630"/>
</g>
</svg>
